HIERARCHY
ROOT hip
{
  OFFSET 0.0 0.0 0.0
  CHANNELS 6 Xposition Yposition Zposition Zrotation Yrotation Xrotation
  JOINT abdomen
  {
    OFFSET 0.0 20.6881 -0.73152
    CHANNELS 3 Zrotation Xrotation Yrotation
    JOINT chest
    {
      OFFSET 0.0 11.7043 -0.48768
      CHANNELS 3 Zrotation Xrotation Yrotation
      JOINT neck
      {
        OFFSET 0.0 22.1894 -2.19456
        CHANNELS 3 Zrotation Xrotation Yrotation
        JOINT head
        {
          OFFSET -0.24384 7.07133 1.2192
          CHANNELS 3 Zrotation Xrotation Yrotation
          JOINT leftEye
          {
            OFFSET 4.14528 8.04674 8.04672
            CHANNELS 3 Zrotation Xrotation Yrotation
            End Site
            {
              OFFSET 1.0 0.0 0.0
            }
          }
          JOINT rightEye
          {
            OFFSET -3.6576 8.04674 8.04672
            CHANNELS 3 Zrotation Xrotation Yrotation
            End Site
            {
              OFFSET 1.0 0.0 0.0
            }
          }
        }
      }
      JOINT rCollar
      {
        OFFSET -2.68224 19.2634 -4.8768
        CHANNELS 3 Zrotation Xrotation Yrotation
        JOINT rShldr
        {
          OFFSET -8.77824 -1.95073 1.46304
          CHANNELS 3 Zrotation Xrotation Yrotation
          JOINT rForeArm
          {
            OFFSET -28.1742 -1.7115 0.48768
            CHANNELS 3 Zrotation Xrotation Yrotation
            JOINT rHand
            {
              OFFSET -22.5879 0.773209 7.07136
              CHANNELS 3 Zrotation Xrotation Yrotation
              JOINT rThumb1
              {
                OFFSET -1.2192 -0.487915 3.41376
                CHANNELS 3 Zrotation Xrotation Yrotation
                JOINT rThumb2
                {
                  OFFSET -3.37035 -0.52449 3.41376
                  CHANNELS 3 Zrotation Xrotation Yrotation
                  End Site
                  {
                    OFFSET -1.78271 -1.18214 1.43049
                  }
                }
              }
              JOINT rIndex1
              {
                OFFSET -7.75947 0.938293 5.60832
                CHANNELS 3 Zrotation Xrotation Yrotation
                JOINT rIndex2
                {
                  OFFSET -2.54057 -0.884171 1.56538
                  CHANNELS 3 Zrotation Xrotation Yrotation
                  End Site
                  {
                    OFFSET -1.62519 -0.234802 1.16502
                  }
                }
              }
              JOINT rMid1
              {
                OFFSET -8.24714 1.18213 3.41376
                CHANNELS 3 Zrotation Xrotation Yrotation
                JOINT rMid2
                {
                  OFFSET -3.10165 -0.590103 1.0647
                  CHANNELS 3 Zrotation Xrotation Yrotation
                  End Site
                  {
                    OFFSET -2.48547 -0.328903 0.83742
                  }
                }
              }
              JOINT rRing1
              {
                OFFSET -8.82822 0.546677 1.51678
                CHANNELS 3 Zrotation Xrotation Yrotation
                JOINT rRing2
                {
                  OFFSET -2.60934 -0.819778 -0.0198488
                  CHANNELS 3 Zrotation Xrotation Yrotation
                  End Site
                  {
                    OFFSET -2.33842 -0.294052 0.168128
                  }
                }
              }
              JOINT rPinky1
              {
                OFFSET -8.27202 -0.0477905 -0.4584
                CHANNELS 3 Zrotation Xrotation Yrotation
                JOINT rPinky2
                {
                  OFFSET -1.82734 -0.647385 -0.700984
                  CHANNELS 3 Zrotation Xrotation Yrotation
                  End Site
                  {
                    OFFSET -1.69225 -0.51767 -0.607171
                  }
                }
              }
            }
          }
        }
      }
      JOINT lCollar
      {
        OFFSET 2.68224 19.2634 -4.8768
        CHANNELS 3 Zrotation Xrotation Yrotation
        JOINT lShldr
        {
          OFFSET 8.77824 -1.95073 1.46304
          CHANNELS 3 Zrotation Xrotation Yrotation
          JOINT lForeArm
          {
            OFFSET 28.1742 -1.7115 0.48768
            CHANNELS 3 Zrotation Xrotation Yrotation
            JOINT lHand
            {
              OFFSET 22.5879 0.773209 7.07136
              CHANNELS 3 Zrotation Xrotation Yrotation
              JOINT lThumb1
              {
                OFFSET 1.2192 -0.487915 3.41376
                CHANNELS 3 Zrotation Xrotation Yrotation
                JOINT lThumb2
                {
                  OFFSET 3.37035 -0.52449 3.41376
                  CHANNELS 3 Zrotation Xrotation Yrotation
                  End Site
                  {
                    OFFSET 1.78271 -1.18214 1.43049
                  }
                }
              }
              JOINT lIndex1
              {
                OFFSET 7.75947 0.938293 5.60832
                CHANNELS 3 Zrotation Xrotation Yrotation
                JOINT lIndex2
                {
                  OFFSET 2.54057 -0.884171 1.56538
                  CHANNELS 3 Zrotation Xrotation Yrotation
                  End Site
                  {
                    OFFSET 1.62519 -0.234802 1.16502
                  }
                }
              }
              JOINT lMid1
              {
                OFFSET 8.24714 1.18213 3.41376
                CHANNELS 3 Zrotation Xrotation Yrotation
                JOINT lMid2
                {
                  OFFSET 3.10165 -0.590103 1.0647
                  CHANNELS 3 Zrotation Xrotation Yrotation
                  End Site
                  {
                    OFFSET 2.48547 -0.328903 0.83742
                  }
                }
              }
              JOINT lRing1
              {
                OFFSET 8.82822 0.546677 1.51678
                CHANNELS 3 Zrotation Xrotation Yrotation
                JOINT lRing2
                {
                  OFFSET 2.60934 -0.819778 -0.0198488
                  CHANNELS 3 Zrotation Xrotation Yrotation
                  End Site
                  {
                    OFFSET 2.33842 -0.294052 0.168128
                  }
                }
              }
              JOINT lPinky1
              {
                OFFSET 8.27202 -0.0477905 -0.4584
                CHANNELS 3 Zrotation Xrotation Yrotation
                JOINT lPinky2
                {
                  OFFSET 1.82734 -0.647385 -0.700984
                  CHANNELS 3 Zrotation Xrotation Yrotation
                  End Site
                  {
                    OFFSET 1.69225 -0.51767 -0.607171
                  }
                }
              }
            }
          }
        }
      }
    }
  }
  JOINT rButtock
  {
    OFFSET -8.77824 4.35084 1.2192
    CHANNELS 3 Zrotation Xrotation Yrotation
    JOINT rThigh
    {
      OFFSET 0.0 -1.70687 -2.19456
      CHANNELS 3 Zrotation Xrotation Yrotation
      JOINT rShin
      {
        OFFSET 0.0 -36.8199 0.73152
        CHANNELS 3 Zrotation Xrotation Yrotation
        JOINT rFoot
        {
          OFFSET 0.73152 -45.1104 -5.12064
          CHANNELS 3 Zrotation Xrotation Yrotation
          End Site
          {
            OFFSET -1.1221 -3.69964 12.103
          }
        }
      }
    }
  }
  JOINT lButtock
  {
    OFFSET 8.77824 4.35084 1.2192
    CHANNELS 3 Zrotation Xrotation Yrotation
    JOINT lThigh
    {
      OFFSET 0.0 -1.70687 -2.19456
      CHANNELS 3 Zrotation Xrotation Yrotation
      JOINT lShin
      {
        OFFSET 0.0 -36.8199 0.73152
        CHANNELS 3 Zrotation Xrotation Yrotation
        JOINT lFoot
        {
          OFFSET -0.73152 -45.1104 -5.12064
          CHANNELS 3 Zrotation Xrotation Yrotation
          End Site
          {
            OFFSET 1.1221 -3.69964 12.103
          }
        }
      }
    }
  }
}
MOTION
Frames: 9
Frame Time: 0.00833333
0.0 80.1494 0.0 6.7816 8.6205 6.0219 -9.25601 6.2733 -4.71775 7.09563 -4.19811 -1.1989 3.8037 -3.87892 0.904566 -6.36468 -17.8009 -0.503729 -0.0 0.0 0.0 -0.0 0.0 0.0 0.0 0.0 0.0 0.0 0.0 0.0 0.0 0.0 0.0 -0.144064 -10.7568 -1.52996 -2.37948e-09 3.39971e-09 1.53439e-09 -4.12277e-09 5.89598e-09 2.63921e-09 -2.37947e-09 3.39972e-09 1.53438e-09 7.73091 5.47488 0.417314 -2.37948e-09 3.39972e-09 1.5344e-09 2.90554 0.965183 0.102902 -2.37947e-09 3.39972e-09 1.53439e-09 10.2786 0.731801 0.0259123 -2.37948e-09 3.39972e-09 1.5344e-09 2.22167 -0.733487 -0.20892 0.0 0.0 0.0 0.0 0.0 0.0 0.0 0.0 0.0 0.0829818 -8.17195 1.15647 -2.80162e-09 -4.5307e-09 2.30758e-10 -4.84414e-09 -7.84177e-09 3.88312e-10 -2.80162e-09 -4.5307e-09 2.30758e-10 -7.73091 5.47488 -0.417314 -2.80162e-09 -4.5307e-09 2.30751e-10 -2.90554 0.965183 -0.102902 -2.80162e-09 -4.5307e-09 2.30752e-10 -10.2786 0.731801 -0.0259123 -2.80162e-09 -4.5307e-09 2.30745e-10 -2.22167 -0.733487 0.20892 -2.03217e-16 0.0 -3.88251e-19 -13.4758 -49.7592 -7.39586 -0.332957 39.4786 0.681211 -2.15228 1.15498 -16.6939 2.03217e-16 0.0 3.88251e-19 -7.09957 14.7275 -2.11751 -0.0581849 3.85856 -0.545715 3.19187 -10.5673 13.1468
-0.0352800000000002 79.912 1.0730999999999966 6.7735 8.7825 6.0961 -9.2781 6.0116 -4.95084 7.14745 -4.22938 -1.25908 3.85382 -3.90642 0.980192 -6.35484 -17.8536 -0.372159 -0.0 0.0 0.0 -0.0 0.0 0.0 0.0 0.0 0.0 0.0 0.0 0.0 0.0 0.0 0.0 -0.14364 -10.7413 -1.52772 -1.96953e-09 3.43251e-09 1.45457e-09 -3.41526e-09 5.9538e-09 2.5041e-09 -1.96952e-09 3.43252e-09 1.45456e-09 7.73091 5.47488 0.417314 -1.96953e-09 3.43251e-09 1.45458e-09 2.90554 0.965183 0.102902 -1.96953e-09 3.43251e-09 1.45457e-09 10.2786 0.731801 0.0259123 -1.96954e-09 3.43252e-09 1.45457e-09 2.22167 -0.733487 -0.20892 0.0 0.0 0.0 0.0 0.0 0.0 0.0 0.0 0.0 0.0800689 -8.0263 1.13559 -2.54603e-09 -4.17387e-09 6.31441e-10 -4.40537e-09 -7.22887e-09 1.08279e-09 -2.54603e-09 -4.17387e-09 6.31439e-10 -7.73091 5.47488 -0.417314 -2.54603e-09 -4.17387e-09 6.31431e-10 -2.90554 0.965183 -0.102902 -2.54603e-09 -4.17387e-09 6.31433e-10 -10.2786 0.731801 -0.0259123 -2.54603e-09 -4.17387e-09 6.31427e-10 -2.22167 -0.733487 0.20892 -2.03217e-16 0.0 -3.88251e-19 -13.5617 -49.8253 -7.80925 -0.355461 40.6458 0.717461 -2.09539 1.46524 -16.7205 2.03217e-16 0.0 3.88251e-19 -6.92581 15.5624 -2.33062 -0.0616506 3.51269 -0.562873 3.0835 -10.2894 13.0991
-0.07720000000000038 79.6971 2.1692000000000036 6.7411 8.9294 6.1711 -9.22529 5.74868 -5.14821 7.16669 -4.28855 -1.3078 3.9161 -3.94133 1.0575 -6.36901 -17.8943 -0.245123 -0.0 0.0 0.0 -0.0 0.0 0.0 0.0 0.0 0.0 0.0 0.0 0.0 0.0 0.0 0.0 -0.142811 -10.7111 -1.52331 -1.59973e-09 3.02795e-09 1.21185e-09 -2.77478e-09 5.25199e-09 2.08657e-09 -1.59972e-09 3.02795e-09 1.21183e-09 7.73091 5.47488 0.417314 -1.59973e-09 3.02795e-09 1.21185e-09 2.90554 0.965183 0.102902 -1.59973e-09 3.02795e-09 1.21184e-09 10.2786 0.731801 0.0259123 -1.59974e-09 3.02795e-09 1.21185e-09 2.22167 -0.733487 -0.20892 0.0 0.0 0.0 0.0 0.0 0.0 0.0 0.0 0.0 0.0745417 -7.7658 1.09821 -2.22379e-09 -3.55323e-09 6.87407e-10 -3.84922e-09 -6.15606e-09 1.18093e-09 -2.22379e-09 -3.55323e-09 6.87404e-10 -7.73091 5.47488 -0.417314 -2.22379e-09 -3.55323e-09 6.87394e-10 -2.90554 0.965183 -0.102902 -2.22379e-09 -3.55323e-09 6.87397e-10 -10.2786 0.731801 -0.0259123 -2.22379e-09 -3.55323e-09 6.87391e-10 -2.22167 -0.733487 0.20892 -2.03217e-16 0.0 -3.88251e-19 -13.5696 -49.8643 -8.17695 -0.378072 41.7219 0.750585 -1.99701 1.84844 -16.5659 2.03217e-16 0.0 3.88251e-19 -6.69837 16.311 -2.50812 -0.0649338 3.31086 -0.580644 2.95751 -9.96004 12.9803
-0.1232899999999999 79.5114 3.2841000000000093 6.6804 9.0633 6.2449 -9.08457 5.46635 -5.30799 7.14515 -4.38543 -1.34383 3.99387 -3.97905 1.13394 -6.41935 -17.9081 -0.129499 -0.0 0.0 0.0 -0.0 0.0 0.0 0.0 0.0 0.0 0.0 0.0 0.0 0.0 0.0 0.0 -0.141295 -10.6553 -1.51518 -1.29041e-09 1.74188e-09 6.51888e-10 -2.23425e-09 3.01923e-09 1.11907e-09 -1.2904e-09 1.74188e-09 6.51878e-10 7.73091 5.47488 0.417314 -1.2904e-09 1.74188e-09 6.51894e-10 2.90554 0.965183 0.102902 -1.2904e-09 1.74188e-09 6.51887e-10 10.2786 0.731801 0.0259123 -1.29041e-09 1.74188e-09 6.51895e-10 2.22167 -0.733487 -0.20892 0.0 0.0 0.0 0.0 0.0 0.0 0.0 0.0 0.0 0.0671731 -7.37993 1.04298 -1.78038e-09 -2.4302e-09 7.31962e-11 -3.0798e-09 -4.20785e-09 1.19816e-10 -1.78038e-09 -2.4302e-09 7.31947e-11 -7.73091 5.47488 -0.417314 -1.78038e-09 -2.43019e-09 7.31845e-11 -2.90554 0.965183 -0.102902 -1.78038e-09 -2.43019e-09 7.31874e-11 -10.2786 0.731801 -0.0259123 -1.78038e-09 -2.43019e-09 7.31799e-11 -2.22167 -0.733487 0.20892 -2.03217e-16 0.0 -3.88251e-19 -13.5049 -49.8925 -8.51686 -0.399837 42.694 0.77991 -1.82517 2.39475 -16.102 2.03217e-16 0.0 3.88251e-19 -6.41321 17.0263 -2.64873 -0.0682336 3.15637 -0.600113 2.81153 -9.57562 12.7922
-0.18710999999999967 79.3617 4.411299999999997 6.5493 9.1361 6.3126 -8.872 5.16191 -5.44269 7.09385 -4.50884 -1.37111 4.07928 -4.02014 1.2103 -6.48785 -17.8945 -0.0182922 -0.0 0.0 0.0 -0.0 0.0 0.0 0.0 0.0 0.0 0.0 0.0 0.0 0.0 0.0 0.0 -0.139408 -10.5851 -1.50497 -1.00119e-09 -1.50858e-10 -1.41186e-10 -1.72534e-09 -2.67135e-10 -2.52357e-10 -1.00118e-09 -1.50859e-10 -1.41192e-10 7.73091 5.47488 0.417314 -1.00118e-09 -1.50862e-10 -1.41181e-10 2.90554 0.965183 0.102902 -1.00119e-09 -1.50858e-10 -1.41187e-10 10.2786 0.731801 0.0259123 -1.0012e-09 -1.50855e-10 -1.41178e-10 2.22167 -0.733487 -0.20892 0.0 0.0 0.0 0.0 0.0 0.0 0.0 0.0 0.0 0.05907 -6.89692 0.974055 -1.23891e-09 -9.31476e-10 -9.76519e-10 -2.13848e-09 -1.6057e-09 -1.69456e-09 -1.23892e-09 -9.31475e-10 -9.76517e-10 -7.73091 5.47488 -0.417314 -1.23891e-09 -9.31476e-10 -9.76528e-10 -2.90554 0.965183 -0.102902 -1.23891e-09 -9.31476e-10 -9.76525e-10 -10.2786 0.731801 -0.0259123 -1.23891e-09 -9.31474e-10 -9.76535e-10 -2.22167 -0.733487 0.20892 -2.03217e-16 0.0 -3.88251e-19 -13.3748 -49.8992 -8.84515 -0.420774 43.5903 0.806041 -1.61232 3.06357 -15.4326 2.03217e-16 0.0 3.88251e-19 -6.0761 17.6992 -2.76478 -0.0713071 3.06776 -0.620928 2.65228 -9.14524 12.5507
-0.2632000000000003 79.2537 5.551200000000009 6.3663 9.1657 6.3571 -8.60301 4.87831 -5.54741 7.0229 -4.64511 -1.38949 4.17082 -4.07452 1.29174 -6.56104 -17.8878 0.0986073 -0.0 0.0 0.0 -0.0 0.0 0.0 0.0 0.0 0.0 0.0 0.0 0.0 0.0 0.0 0.0 -0.137578 -10.5162 -1.49495 -7.16598e-10 -1.85706e-09 -8.83206e-10 -1.22524e-09 -3.22968e-09 -1.53529e-09 -7.16588e-10 -1.85706e-09 -8.83207e-10 7.73091 5.47488 0.417314 -7.1659e-10 -1.85706e-09 -8.83201e-10 2.90554 0.965183 0.102902 -7.16593e-10 -1.85706e-09 -8.83207e-10 10.2786 0.731801 0.0259123 -7.16603e-10 -1.85706e-09 -8.83197e-10 2.22167 -0.733487 -0.20892 0.0 0.0 0.0 0.0 0.0 0.0 0.0 0.0 0.0 0.0498662 -6.31923 0.891795 -7.04742e-10 5.01162e-10 -1.90546e-09 -1.20996e-09 8.81648e-10 -3.30015e-09 -7.04745e-10 5.01163e-10 -1.90546e-09 -7.73091 5.47488 -0.417314 -7.04738e-10 5.01162e-10 -1.90547e-09 -2.90554 0.965183 -0.102902 -7.04745e-10 5.01162e-10 -1.90547e-09 -10.2786 0.731801 -0.0259123 -7.04735e-10 5.01163e-10 -1.90548e-09 -2.22167 -0.733487 0.20892 -2.03217e-16 0.0 -3.88251e-19 -13.1585 -49.8574 -9.10675 -0.441286 44.4187 0.828764 -1.42547 3.68748 -14.769 2.03217e-16 0.0 3.88251e-19 -5.7 18.2179 -2.8474 -0.0733503 3.24868 -0.640901 2.48703 -8.66823 12.2421
-0.36214000000000013 79.1889 6.700199999999995 6.1101 9.1355 6.3728 -8.29268 4.65844 -5.61715 6.94243 -4.78057 -1.3988 4.26709 -4.15209 1.38343 -6.62514 -17.9223 0.2314 -0.0 0.0 0.0 -0.0 0.0 0.0 0.0 0.0 0.0 0.0 0.0 0.0 0.0 0.0 0.0 -0.136213 -10.4643 -1.4874 -4.21155e-10 -2.58353e-09 -1.29e-09 -7.11127e-10 -4.49099e-09 -2.23729e-09 -4.21146e-10 -2.58353e-09 -1.29e-09 7.73091 5.47488 0.417314 -4.21146e-10 -2.58353e-09 -1.29e-09 2.90554 0.965183 0.102902 -4.21149e-10 -2.58352e-09 -1.29e-09 10.2786 0.731801 0.0259123 -4.2116e-10 -2.58352e-09 -1.28999e-09 2.22167 -0.733487 -0.20892 0.0 0.0 0.0 0.0 0.0 0.0 0.0 0.0 0.0 0.0393027 -5.6493 0.796566 -2.83228e-10 1.42595e-09 -2.15736e-09 -4.78937e-10 2.48545e-09 -3.73489e-09 -2.8323e-10 1.42595e-09 -2.15735e-09 -7.73091 5.47488 -0.417314 -2.83223e-10 1.42595e-09 -2.15736e-09 -2.90554 0.965183 -0.102902 -2.8323e-10 1.42595e-09 -2.15736e-09 -10.2786 0.731801 -0.0259123 -2.83218e-10 1.42595e-09 -2.15737e-09 -2.22167 -0.733487 0.20892 -2.03217e-16 0.0 -3.88251e-19 -12.8348 -49.7405 -9.2465 -0.461811 45.1872 0.847892 -1.31561 4.0952 -14.3213 2.03217e-16 0.0 3.88251e-19 -5.29848 18.4706 -2.8873 -0.0733145 3.90274 -0.657915 2.32387 -8.14371 11.8524
-0.46426000000000034 79.1667 7.860600000000005 5.8461 9.0503 6.3463 -7.93549 4.52543 -5.62055 6.84805 -4.92532 -1.38979 4.36837 -4.26209 1.48996 -6.67518 -18.0062 0.38908 -0.0 0.0 0.0 -0.0 0.0 0.0 0.0 0.0 0.0 0.0 0.0 0.0 0.0 0.0 0.0 -0.135463 -10.4356 -1.48324 -7.17056e-11 -1.59325e-09 -1.17351e-09 -1.11662e-10 -2.77166e-09 -2.0319e-09 -7.16986e-11 -1.59325e-09 -1.17351e-09 7.73091 5.47488 0.417314 -7.16981e-11 -1.59325e-09 -1.17351e-09 2.90554 0.965183 0.102902 -7.16998e-11 -1.59325e-09 -1.17351e-09 10.2786 0.731801 0.0259123 -7.1711e-11 -1.59324e-09 -1.1735e-09 2.22167 -0.733487 -0.20892 0.0 0.0 0.0 0.0 0.0 0.0 0.0 0.0 0.0 0.0273902 -4.82918 0.680229 -2.39247e-11 1.59781e-09 -1.20613e-09 -3.25914e-11 2.77879e-09 -2.08895e-09 -2.39268e-11 1.59781e-09 -1.20613e-09 -7.73091 5.47488 -0.417314 -2.39201e-11 1.59781e-09 -1.20613e-09 -2.90554 0.965183 -0.102902 -2.39274e-11 1.59781e-09 -1.20613e-09 -10.2786 0.731801 -0.0259123 -2.39146e-11 1.59781e-09 -1.20615e-09 -2.22167 -0.733487 0.20892 -2.03217e-16 0.0 -3.88251e-19 -12.3565 -49.6038 -9.18957 -0.48451 45.9707 0.8641 -1.29532 4.22035 -14.1869 2.03217e-16 0.0 3.88251e-19 -4.88831 18.3971 -2.86121 -0.0705805 5.19845 -0.673575 2.20791 -7.67771 11.4317
-0.57979 79.1346 8.960300000000004 5.597 8.9395 6.2829 -7.52565 4.45242 -5.57029 6.7369 -5.08207 -1.36561 4.4755 -4.39702 1.60753 -6.7184 -18.1214 0.564285 -0.0 0.0 0.0 -0.0 0.0 0.0 0.0 0.0 0.0 0.0 0.0 0.0 0.0 0.0 0.0 -0.135083 -10.4212 -1.48114 3.10486e-10 5.15565e-10 -7.2272e-10 5.39236e-10 8.89651e-10 -1.2468e-09 3.10491e-10 5.15564e-10 -7.22727e-10 7.73091 5.47488 0.417314 3.10491e-10 5.15564e-10 -7.2272e-10 2.90554 0.965183 0.102902 3.10492e-10 5.15567e-10 -7.22719e-10 10.2786 0.731801 0.0259123 3.1048e-10 5.1557e-10 -7.22709e-10 2.22167 -0.733487 -0.20892 0.0 0.0 0.0 0.0 0.0 0.0 0.0 0.0 0.0 0.0166492 -3.87706 0.545588 1.36511e-10 1.29477e-09 5.25624e-10 2.40227e-10 2.24563e-09 9.06812e-10 1.36509e-10 1.29477e-09 5.25622e-10 -7.73091 5.47488 -0.417314 1.36516e-10 1.29477e-09 5.25623e-10 -2.90554 0.965183 -0.102902 1.36508e-10 1.29477e-09 5.2562e-10 -10.2786 0.731801 -0.0259123 1.36521e-10 1.29477e-09 5.2561e-10 -2.22167 -0.733487 0.20892 -2.03217e-16 0.0 -3.88251e-19 -11.7504 -49.4408 -8.98681 -0.508042 46.7407 0.876938 -1.32937 4.15917 -14.2392 2.03217e-16 0.0 3.88251e-19 -4.4585 18.0672 -2.7807 -0.065166 6.98914 -0.688858 2.12248 -7.23471 10.9696
